HIERARCHY
ROOT mixamorig:Hips
{
	OFFSET -0.000008 104.274872 1.554316
	CHANNELS 6 Xposition Yposition Zposition Xrotation Yrotation Zrotation
	JOINT mixamorig:Spine
	{
		OFFSET -0.000005 10.181595 0.131519
		CHANNELS 6 Xposition Yposition Zposition Xrotation Yrotation Zrotation
		JOINT mixamorig:Spine1
		{
			OFFSET -0.000000 9.893959 -1.470707
			CHANNELS 6 Xposition Yposition Zposition Xrotation Yrotation Zrotation
			JOINT mixamorig:Spine2
			{
				OFFSET -0.000000 9.220757 -1.370641
				CHANNELS 6 Xposition Yposition Zposition Xrotation Yrotation Zrotation
				JOINT mixamorig:Neck
				{
					OFFSET 0.000001 16.740417 -2.049036
					CHANNELS 6 Xposition Yposition Zposition Xrotation Yrotation Zrotation
					JOINT mixamorig:Head
					{
						OFFSET 0.000000 9.617874 1.685006
						CHANNELS 6 Xposition Yposition Zposition Xrotation Yrotation Zrotation
						JOINT mixamorig:HeadTop_End
						{
							OFFSET 0.000002 22.037354 7.501101
							CHANNELS 6 Xposition Yposition Zposition Xrotation Yrotation Zrotation
							End Site
							{
								OFFSET 0.000168 2310.654297 -282.823242
							}
						}
					}
				}
				JOINT mixamorig:RightShoulder
				{
					OFFSET -4.569970 11.014908 -2.160885
					CHANNELS 6 Xposition Yposition Zposition Xrotation Yrotation Zrotation
					JOINT mixamorig:RightArm
					{
						OFFSET -10.592851 -0.524811 -2.232101
						CHANNELS 6 Xposition Yposition Zposition Xrotation Yrotation Zrotation
						JOINT mixamorig:RightForeArm
						{
							OFFSET -27.841511 0.000031 -0.000004
							CHANNELS 6 Xposition Yposition Zposition Xrotation Yrotation Zrotation
							JOINT mixamorig:RightHand
							{
								OFFSET -28.328831 -0.000015 0.000015
								CHANNELS 6 Xposition Yposition Zposition Xrotation Yrotation Zrotation
								JOINT mixamorig:RightHandThumb1
								{
									OFFSET -2.464806 -1.573990 2.681852
									CHANNELS 6 Xposition Yposition Zposition Xrotation Yrotation Zrotation
									JOINT mixamorig:RightHandThumb2
									{
										OFFSET -3.215179 -1.872803 1.924282
										CHANNELS 6 Xposition Yposition Zposition Xrotation Yrotation Zrotation
										JOINT mixamorig:RightHandThumb3
										{
											OFFSET -2.654831 -1.527969 1.512609
											CHANNELS 6 Xposition Yposition Zposition Xrotation Yrotation Zrotation
											JOINT mixamorig:RightHandThumb4
											{
												OFFSET -2.018814 -1.152008 1.108052
												CHANNELS 6 Xposition Yposition Zposition Xrotation Yrotation Zrotation
												End Site
												{
													OFFSET -188.809540 -114.533607 132.431396
												}
											}
										}
									}
								}
								JOINT mixamorig:RightHandIndex1
								{
									OFFSET -9.108284 -0.517868 2.259835
									CHANNELS 6 Xposition Yposition Zposition Xrotation Yrotation Zrotation
									JOINT mixamorig:RightHandIndex2
									{
										OFFSET -3.699989 0.000000 0.001215
										CHANNELS 6 Xposition Yposition Zposition Xrotation Yrotation Zrotation
										JOINT mixamorig:RightHandIndex3
										{
											OFFSET -2.850006 0.000031 -0.000522
											CHANNELS 6 Xposition Yposition Zposition Xrotation Yrotation Zrotation
											JOINT mixamorig:RightHandIndex4
											{
												OFFSET -2.772186 -0.000015 -0.000020
												CHANNELS 6 Xposition Yposition Zposition Xrotation Yrotation Zrotation
												End Site
												{
													OFFSET -277.218445 0.000000 -0.050231
												}
											}
										}
									}
								}
								JOINT mixamorig:RightHandMiddle1
								{
									OFFSET -9.532516 -0.000031 -0.000023
									CHANNELS 6 Xposition Yposition Zposition Xrotation Yrotation Zrotation
									JOINT mixamorig:RightHandMiddle2
									{
										OFFSET -3.700005 -0.000015 0.003713
										CHANNELS 6 Xposition Yposition Zposition Xrotation Yrotation Zrotation
										JOINT mixamorig:RightHandMiddle3
										{
											OFFSET -2.949974 0.000015 -0.002054
											CHANNELS 6 Xposition Yposition Zposition Xrotation Yrotation Zrotation
											JOINT mixamorig:RightHandMiddle4
											{
												OFFSET -2.946640 0.000000 -0.000156
												CHANNELS 6 Xposition Yposition Zposition Xrotation Yrotation Zrotation
												End Site
												{
													OFFSET -294.664337 0.000000 -0.113670
												}
											}
										}
									}
								}
								JOINT mixamorig:RightHandRing1
								{
									OFFSET -9.103600 -0.043076 -1.865134
									CHANNELS 6 Xposition Yposition Zposition Xrotation Yrotation Zrotation
									JOINT mixamorig:RightHandRing2
									{
										OFFSET -3.379288 0.000000 -0.001055
										CHANNELS 6 Xposition Yposition Zposition Xrotation Yrotation Zrotation
										JOINT mixamorig:RightHandRing3
										{
											OFFSET -2.889687 -0.000015 0.000379
											CHANNELS 6 Xposition Yposition Zposition Xrotation Yrotation Zrotation
											JOINT mixamorig:RightHandRing4
											{
												OFFSET -2.638809 -0.000015 0.000941
												CHANNELS 6 Xposition Yposition Zposition Xrotation Yrotation Zrotation
												End Site
												{
													OFFSET -263.880371 0.000000 0.516020
												}
											}
										}
									}
								}
								JOINT mixamorig:RightHandPinky1
								{
									OFFSET -8.076683 -0.486710 -3.806280
									CHANNELS 6 Xposition Yposition Zposition Xrotation Yrotation Zrotation
									JOINT mixamorig:RightHandPinky2
									{
										OFFSET -3.600014 -0.000015 -0.003747
										CHANNELS 6 Xposition Yposition Zposition Xrotation Yrotation Zrotation
										JOINT mixamorig:RightHandPinky3
										{
											OFFSET -2.099983 0.000000 -0.005739
											CHANNELS 6 Xposition Yposition Zposition Xrotation Yrotation Zrotation
											JOINT mixamorig:RightHandPinky4
											{
												OFFSET -2.115768 -0.000031 -0.003680
												CHANNELS 6 Xposition Yposition Zposition Xrotation Yrotation Zrotation
												End Site
												{
													OFFSET -211.577087 0.000000 -0.350686
												}
											}
										}
									}
								}
							}
						}
					}
				}
				JOINT mixamorig:LeftShoulder
				{
					OFFSET 4.570447 11.014725 -2.160855
					CHANNELS 6 Xposition Yposition Zposition Xrotation Yrotation Zrotation
					JOINT mixamorig:LeftArm
					{
						OFFSET 10.592371 -0.524597 -2.232119
						CHANNELS 6 Xposition Yposition Zposition Xrotation Yrotation Zrotation
						JOINT mixamorig:LeftForeArm
						{
							OFFSET 27.841532 -0.000031 0.000026
							CHANNELS 6 Xposition Yposition Zposition Xrotation Yrotation Zrotation
							JOINT mixamorig:LeftHand
							{
								OFFSET 28.328846 -0.000061 0.000022
								CHANNELS 6 Xposition Yposition Zposition Xrotation Yrotation Zrotation
								JOINT mixamorig:LeftHandThumb1
								{
									OFFSET 2.466141 -1.576172 2.681732
									CHANNELS 6 Xposition Yposition Zposition Xrotation Yrotation Zrotation
									JOINT mixamorig:LeftHandThumb2
									{
										OFFSET 3.217812 -1.872070 1.916482
										CHANNELS 6 Xposition Yposition Zposition Xrotation Yrotation Zrotation
										JOINT mixamorig:LeftHandThumb3
										{
											OFFSET 2.656029 -1.528778 1.514513
											CHANNELS 6 Xposition Yposition Zposition Xrotation Yrotation Zrotation
											JOINT mixamorig:LeftHandThumb4
											{
												OFFSET 2.020889 -1.154053 1.115139
												CHANNELS 6 Xposition Yposition Zposition Xrotation Yrotation Zrotation
												End Site
												{
													OFFSET 190.885437 -115.081749 130.048782
												}
											}
										}
									}
								}
								JOINT mixamorig:LeftHandIndex1
								{
									OFFSET 9.109314 -0.518021 2.259871
									CHANNELS 6 Xposition Yposition Zposition Xrotation Yrotation Zrotation
									JOINT mixamorig:LeftHandIndex2
									{
										OFFSET 3.699989 0.000000 -0.000322
										CHANNELS 6 Xposition Yposition Zposition Xrotation Yrotation Zrotation
										JOINT mixamorig:LeftHandIndex3
										{
											OFFSET 2.850006 0.000000 0.000352
											CHANNELS 6 Xposition Yposition Zposition Xrotation Yrotation Zrotation
											JOINT mixamorig:LeftHandIndex4
											{
												OFFSET 2.774864 -0.000031 -0.000027
												CHANNELS 6 Xposition Yposition Zposition Xrotation Yrotation Zrotation
												End Site
												{
													OFFSET 277.486267 0.000000 -0.009857
												}
											}
										}
									}
								}
								JOINT mixamorig:LeftHandMiddle1
								{
									OFFSET 9.533394 0.000061 0.000044
									CHANNELS 6 Xposition Yposition Zposition Xrotation Yrotation Zrotation
									JOINT mixamorig:LeftHandMiddle2
									{
										OFFSET 3.699989 -0.000015 -0.000231
										CHANNELS 6 Xposition Yposition Zposition Xrotation Yrotation Zrotation
										JOINT mixamorig:LeftHandMiddle3
										{
											OFFSET 2.949997 -0.000015 -0.000059
											CHANNELS 6 Xposition Yposition Zposition Xrotation Yrotation Zrotation
											JOINT mixamorig:LeftHandMiddle4
											{
												OFFSET 2.952896 0.000031 0.000063
												CHANNELS 6 Xposition Yposition Zposition Xrotation Yrotation Zrotation
												End Site
												{
													OFFSET 295.289337 0.000000 0.022810
												}
											}
										}
									}
								}
								JOINT mixamorig:LeftHandRing1
								{
									OFFSET 9.104523 -0.042999 -1.865074
									CHANNELS 6 Xposition Yposition Zposition Xrotation Yrotation Zrotation
									JOINT mixamorig:LeftHandRing2
									{
										OFFSET 3.150009 -0.000031 0.000043
										CHANNELS 6 Xposition Yposition Zposition Xrotation Yrotation Zrotation
										JOINT mixamorig:LeftHandRing3
										{
											OFFSET 2.949982 -0.000015 0.000040
											CHANNELS 6 Xposition Yposition Zposition Xrotation Yrotation Zrotation
											JOINT mixamorig:LeftHandRing4
											{
												OFFSET 2.644348 0.000000 0.000057
												CHANNELS 6 Xposition Yposition Zposition Xrotation Yrotation Zrotation
												End Site
												{
													OFFSET 264.434631 0.000000 0.012105
												}
											}
										}
									}
								}
								JOINT mixamorig:LeftHandPinky1
								{
									OFFSET 8.077789 -0.486847 -3.806259
									CHANNELS 6 Xposition Yposition Zposition Xrotation Yrotation Zrotation
									JOINT mixamorig:LeftHandPinky2
									{
										OFFSET 3.599953 0.000031 0.014727
										CHANNELS 6 Xposition Yposition Zposition Xrotation Yrotation Zrotation
										JOINT mixamorig:LeftHandPinky3
										{
											OFFSET 2.100021 0.000015 0.007705
											CHANNELS 6 Xposition Yposition Zposition Xrotation Yrotation Zrotation
											JOINT mixamorig:LeftHandPinky4
											{
												OFFSET 2.125504 0.000031 0.007517
												CHANNELS 6 Xposition Yposition Zposition Xrotation Yrotation Zrotation
												End Site
												{
													OFFSET 212.550781 0.000000 0.625752
												}
											}
										}
									}
								}
							}
						}
					}
				}
			}
		}
	}
	JOINT mixamorig:RightUpLeg
	{
		OFFSET -8.207787 -6.751648 -1.599560
		CHANNELS 6 Xposition Yposition Zposition Xrotation Yrotation Zrotation
		JOINT mixamorig:RightLeg
		{
			OFFSET -0.000002 -44.370117 0.345942
			CHANNELS 6 Xposition Yposition Zposition Xrotation Yrotation Zrotation
			JOINT mixamorig:RightFoot
			{
				OFFSET 0.000003 -44.423679 -3.043532
				CHANNELS 6 Xposition Yposition Zposition Xrotation Yrotation Zrotation
				JOINT mixamorig:RightToeBase
				{
					OFFSET -0.000002 -8.728671 10.710558
					CHANNELS 6 Xposition Yposition Zposition Xrotation Yrotation Zrotation
					JOINT mixamorig:RightToe_End
					{
						OFFSET -0.000001 -0.000679 9.278119
						CHANNELS 6 Xposition Yposition Zposition Xrotation Yrotation Zrotation
						End Site
						{
							OFFSET 0.000000 -0.067690 927.812134
						}
					}
				}
			}
		}
	}
	JOINT mixamorig:LeftUpLeg
	{
		OFFSET 8.207793 -6.751686 -1.599556
		CHANNELS 6 Xposition Yposition Zposition Xrotation Yrotation Zrotation
		JOINT mixamorig:LeftLeg
		{
			OFFSET -0.000004 -44.370014 0.346954
			CHANNELS 6 Xposition Yposition Zposition Xrotation Yrotation Zrotation
			JOINT mixamorig:LeftFoot
			{
				OFFSET -0.000001 -44.423672 -3.044401
				CHANNELS 6 Xposition Yposition Zposition Xrotation Yrotation Zrotation
				JOINT mixamorig:LeftToeBase
				{
					OFFSET -0.000002 -8.728669 10.710558
					CHANNELS 6 Xposition Yposition Zposition Xrotation Yrotation Zrotation
					JOINT mixamorig:LeftToe_End
					{
						OFFSET -0.000003 -0.000679 9.278133
						CHANNELS 6 Xposition Yposition Zposition Xrotation Yrotation Zrotation
						End Site
						{
							OFFSET 0.000000 -0.068021 927.813477
						}
					}
				}
			}
		}
	}
}
MOTION
Frames: 3
Frame Time: 0.033333
0.000006 104.270477 1.554256 0.000010 0.000003 -0.000113 -0.000005 10.181587 0.131522 0.000001 -0.000003 0.000084 -0.000000 9.893967 -1.470711 0.000001 0.000000 -0.000000 -0.000000 9.220802 -1.370642 0.000000 -0.000000 -0.000000 0.000001 16.740433 -2.049030 0.000000 -0.000000 -0.000000 0.000000 9.617859 1.685014 0.000000 0.000000 0.000000 0.000002 22.037384 7.501101 0.000000 -0.000000 0.000000 -4.569968 11.014880 -2.160881 0.000008 0.000001 -0.000038 -10.592879 -0.524745 -2.231925 74.804717 25.335632 -19.503643 -27.841530 0.000009 0.000543 -56.887536 109.266416 74.698931 -28.328814 0.000022 0.000022 -0.000320 -0.000046 0.000007 -2.464411 -1.573863 2.682366 -39.137701 -158.376569 10.057378 -3.215288 -1.872564 1.924654 154.145430 31.618226 4.261021 -2.654955 -1.527888 1.513080 149.024045 26.713411 -35.398705 -2.018834 -1.152016 1.108068 -0.000006 -0.000001 0.000002 -9.108404 -0.517564 2.260129 98.478767 18.344963 -21.275028 -3.700062 0.000301 0.001494 89.357090 15.951005 -15.751301 -2.850107 0.000353 -0.000308 87.040809 13.568400 -12.890115 -2.772177 -0.000018 -0.000019 0.000004 -0.000000 -0.000000 -9.532586 0.000282 0.000237 92.655402 14.527555 -15.355754 -3.700074 0.000342 0.003952 90.462693 11.204684 -11.200505 -2.950071 0.000336 -0.001813 89.086034 12.092963 -11.895924 -2.946632 0.000005 -0.000156 0.000002 0.000001 -0.000000 -9.103685 -0.042761 -1.864870 91.010133 16.023579 -16.259856 -3.379313 0.000318 -0.000837 88.549701 8.545122 -8.348958 -2.889736 0.000342 0.000621 90.446977 7.002997 -7.103641 -2.638825 -0.000018 0.000940 0.000001 -0.000000 0.000000 -8.076740 -0.486386 -3.806046 84.668787 15.774651 -14.250494 -3.600044 0.000282 -0.003533 87.633458 7.130433 -6.507655 -2.100025 0.000321 -0.005495 88.629969 5.597591 -5.251460 -2.115784 -0.000027 -0.003683 -0.000001 -0.000001 -0.000003 4.570446 11.014691 -2.160851 -0.000018 0.000010 -0.000021 10.592409 -0.524467 -2.232381 73.315770 -16.402805 12.244879 27.841829 0.000076 -0.000191 105.003278 -69.859564 84.617322 28.328817 -0.000029 0.000018 0.000025 -0.000089 -0.000000 2.465917 -1.576120 2.681908 -47.575000 165.636500 9.590391 3.217785 -1.871734 1.916365 153.074429 -31.308259 -3.165406 2.656093 -1.528613 1.514442 141.804931 -27.768978 38.172425 2.020895 -1.154071 1.115144 0.000001 0.000003 0.000004 9.109380 -0.517848 2.259724 85.861441 -15.071145 14.019464 3.700062 0.000136 -0.000463 79.852110 -18.279383 15.351996 2.850066 0.000158 0.000217 77.662202 -15.108933 12.185127 2.774854 -0.000036 -0.000031 -0.000001 0.000001 0.000001 9.533462 0.000217 -0.000097 84.177335 -13.731333 12.405360 3.700058 0.000155 -0.000368 87.109193 -16.562184 15.754781 2.950070 0.000145 -0.000174 85.207587 -20.584906 18.965521 2.952873 -0.000016 0.000063 -0.000000 0.000000 -0.000000 9.104580 -0.042849 -1.865225 84.301145 -13.573000 12.298019 3.150048 0.000209 -0.000097 90.828887 -12.672765 12.857764 2.950030 0.000166 -0.000071 89.543951 -15.341706 15.223329 2.644331 0.000015 0.000060 0.000005 -0.000000 0.000001 8.077835 -0.486722 -3.806397 74.605029 -15.543870 12.321816 3.599992 0.000183 0.014568 75.572587 -10.924253 8.867192 2.100029 0.000175 0.007539 77.755249 -10.943394 9.218753 2.125512 -0.000016 0.007516 0.000000 -0.000000 -0.000000 -8.207786 -6.751667 -1.599560 -0.077001 -0.000003 0.000080 -0.000002 -44.370110 0.345938 0.153719 -0.000000 -0.000000 0.000000 -44.423679 -3.043532 -0.076700 0.000000 -0.000002 -0.000006 -8.728667 10.710559 -0.000009 -0.000000 -0.000000 -0.000001 -0.000679 9.278123 0.000000 -0.000000 -0.000000 8.207792 -6.751710 -1.599556 -0.074518 -0.000003 0.000081 -0.000002 -44.370014 0.346960 0.148822 0.000002 0.000000 -0.000001 -44.423664 -3.044403 -0.074314 0.000000 -0.000002 -0.000004 -8.728671 10.710558 0.000007 -0.000000 -0.000000 0.000000 -0.000680 9.278137 -0.000000 0.000000 -0.000001 
0.000006 104.270477 1.554256 0.000010 0.000003 -0.000113 -0.000005 10.181587 0.131522 0.000001 -0.000003 0.000084 -0.000000 9.893967 -1.470711 0.000001 0.000000 -0.000000 -0.000000 9.220802 -1.370642 0.000000 -0.000000 -0.000000 0.000001 16.740433 -2.049030 0.000000 -0.000000 -0.000000 0.000000 9.617859 1.685014 0.000000 0.000000 0.000000 0.000002 22.037384 7.501101 0.000000 -0.000000 0.000000 -4.569968 11.014880 -2.160881 0.000008 0.000001 -0.000038 -10.592875 -0.524764 -2.231905 74.598329 28.653323 -22.018867 -27.841518 0.000011 0.000540 -52.942200 105.565068 66.498633 -28.328815 0.000019 0.000033 -0.000322 -0.000044 0.000008 -2.464405 -1.573787 2.682333 -47.706959 -164.049615 -9.437380 -3.215273 -1.872540 1.924639 149.777279 32.112951 12.651157 -2.654967 -1.527855 1.513047 145.422978 28.057073 -26.957662 -2.018815 -1.151990 1.108071 0.000001 -0.000004 0.000004 -9.108381 -0.517556 2.260119 95.667639 16.022007 -17.716930 -3.700059 0.000301 0.001496 91.126335 13.109912 -13.343929 -2.850076 0.000364 -0.000295 89.839575 10.799820 -10.768880 -2.772179 0.000001 -0.000017 -0.000002 -0.000000 0.000000 -9.532581 0.000268 0.000227 91.066093 14.864530 -15.283790 -3.700070 0.000328 0.003959 92.436994 11.713404 -12.120490 -2.950067 0.000315 -0.001811 95.108882 11.937796 -13.035701 -2.946625 -0.000013 -0.000153 0.000000 0.000000 0.000000 -9.103699 -0.042756 -1.864882 88.722702 16.497077 -16.094741 -3.379322 0.000328 -0.000843 90.547668 8.808091 -8.909682 -2.889747 0.000359 0.000652 98.417459 6.617205 -7.718076 -2.638804 -0.000019 0.000941 -0.000006 -0.000001 0.000001 -8.076763 -0.486403 -3.806052 80.985293 16.678745 -14.139330 -3.600056 0.000278 -0.003557 85.403709 7.590555 -6.682032 -2.100004 0.000329 -0.005494 90.192880 4.784958 -4.583687 -2.115785 -0.000055 -0.003678 0.000003 -0.000001 -0.000005 4.570446 11.014691 -2.160851 -0.000018 0.000010 -0.000021 10.592397 -0.524477 -2.232356 73.042644 -12.620406 9.363063 27.841827 0.000066 -0.000189 106.511309 -71.323212 87.728842 28.328833 -0.000028 0.000021 0.000019 -0.000089 -0.000000 2.466165 -1.576143 2.681879 -13.034958 158.037368 -60.994252 3.217829 -1.871781 1.916378 162.332805 -28.461620 14.662143 2.656114 -1.528651 1.514477 140.617407 -27.347529 52.303724 2.020891 -1.154068 1.115144 0.000002 -0.000000 0.000003 9.109370 -0.517871 2.259731 83.871369 -18.788865 16.897070 3.700037 0.000136 -0.000487 81.239028 -12.384707 10.647701 2.850049 0.000179 0.000204 81.236344 -10.135366 8.697539 2.774893 -0.000046 -0.000029 -0.000001 -0.000000 0.000001 9.533468 0.000199 -0.000095 83.850647 -17.744280 15.951668 3.700060 0.000194 -0.000382 86.539692 -10.681209 10.055686 2.950061 0.000167 -0.000207 88.655787 -11.696769 11.430184 2.952874 -0.000030 0.000061 -0.000001 -0.000002 -0.000000 9.104595 -0.042854 -1.865219 83.870734 -17.556667 15.797825 3.150050 0.000202 -0.000098 89.386665 -10.069490 9.964572 2.950029 0.000205 -0.000091 92.267762 -9.624063 10.012574 2.644323 0.000031 0.000053 0.000002 0.000001 0.000001 8.077843 -0.486729 -3.806396 76.102658 -18.690939 15.155987 3.600001 0.000172 0.014559 77.541232 -14.410833 12.013785 2.100040 0.000173 0.007536 81.132996 -11.057484 9.883711 2.125494 -0.000027 0.007513 -0.000001 0.000000 0.000001 -8.207786 -6.751667 -1.599560 -0.077001 -0.000003 0.000080 -0.000002 -44.370110 0.345938 0.153719 -0.000000 -0.000000 0.000000 -44.423679 -3.043532 -0.076700 0.000000 -0.000002 -0.000006 -8.728667 10.710559 -0.000009 -0.000000 -0.000000 -0.000001 -0.000679 9.278123 0.000000 -0.000000 -0.000000 8.207792 -6.751710 -1.599556 -0.074518 -0.000003 0.000081 -0.000002 -44.370014 0.346960 0.148822 0.000002 0.000000 -0.000001 -44.423664 -3.044403 -0.074314 0.000000 -0.000002 -0.000004 -8.728671 10.710558 0.000007 -0.000000 -0.000000 0.000000 -0.000680 9.278137 -0.000000 0.000000 -0.000001 
0.000006 104.270477 1.554256 0.000010 0.000003 -0.000113 -0.000005 10.181587 0.131522 0.000001 -0.000003 0.000084 -0.000000 9.893967 -1.470711 0.000001 0.000000 -0.000000 -0.000000 9.220802 -1.370642 0.000000 -0.000000 -0.000000 0.000001 16.740433 -2.049030 0.000000 -0.000000 -0.000000 0.000000 9.617859 1.685014 0.000000 0.000000 0.000000 0.000002 22.037384 7.501101 0.000000 -0.000000 0.000000 -4.569968 11.014880 -2.160881 0.000008 0.000001 -0.000038 -10.592856 -0.524798 -2.231838 74.088121 42.299105 -32.554358 -27.841522 0.000013 0.000534 -49.181528 102.369393 59.269219 -28.328840 0.000018 0.000025 -0.000322 -0.000047 0.000011 -2.464424 -1.573750 2.682323 -48.786146 -164.399334 -12.259271 -3.215264 -1.872586 1.924649 149.450877 30.600279 0.978942 -2.654954 -1.527864 1.513053 142.775324 28.393564 -26.391865 -2.018831 -1.152001 1.108057 -0.000003 0.000001 0.000004 -9.108377 -0.517544 2.260113 96.151250 16.534981 -18.434228 -3.700081 0.000300 0.001494 90.617657 14.110273 -14.237633 -2.850089 0.000366 -0.000280 89.479733 11.300550 -11.198138 -2.772173 -0.000001 -0.000023 0.000001 -0.000000 0.000001 -9.532593 0.000288 0.000222 90.169842 12.499978 -12.674422 -3.700075 0.000333 0.003960 90.780249 11.855624 -11.921320 -2.950056 0.000315 -0.001837 91.405655 12.006839 -12.295507 -2.946628 0.000000 -0.000155 0.000001 -0.000004 -0.000002 -9.103703 -0.042746 -1.864881 89.054547 14.663906 -14.383542 -3.379350 0.000294 -0.000817 90.393599 10.974113 -11.067039 -2.889756 0.000335 0.000644 95.313685 8.565674 -9.446783 -2.638810 -0.000004 0.000943 0.000000 -0.000002 0.000001 -8.076746 -0.486380 -3.806054 82.152839 14.915631 -12.889219 -3.600039 0.000275 -0.003551 83.297169 8.196642 -6.976983 -2.100025 0.000316 -0.005509 86.867336 6.002835 -5.474970 -2.115758 -0.000044 -0.003679 0.000002 -0.000001 -0.000001 4.570446 11.014691 -2.160851 -0.000018 0.000010 -0.000021 10.592435 -0.524472 -2.232392 72.435365 -24.864964 18.343296 27.841820 0.000045 -0.000183 108.998276 -75.308525 94.496644 28.328842 -0.000029 0.000023 0.000023 -0.000089 0.000002 2.466235 -1.576062 2.681839 8.792115 165.800219 -99.300487 3.217857 -1.871800 1.916404 165.715388 -24.602816 29.191207 2.656106 -1.528630 1.514478 147.235096 -25.465032 49.590629 2.020887 -1.154100 1.115147 0.000004 0.000006 0.000004 9.109402 -0.517870 2.259750 85.840588 -22.765915 21.195677 3.700055 0.000158 -0.000459 82.204496 -16.048810 14.038548 2.850056 0.000188 0.000204 80.822796 -13.298013 11.334906 2.774888 -0.000046 -0.000019 -0.000001 -0.000002 -0.000000 9.533484 0.000188 -0.000086 84.942295 -20.095093 18.417154 3.700047 0.000174 -0.000366 87.601220 -12.745040 12.223770 2.950052 0.000186 -0.000209 87.366999 -12.712778 12.148766 2.952866 -0.000015 0.000063 -0.000000 0.000000 -0.000000 9.104608 -0.042855 -1.865201 85.388566 -19.968077 18.451848 3.150068 0.000181 -0.000095 88.171902 -12.868467 12.469303 2.950035 0.000171 -0.000084 88.565000 -10.880768 10.614862 2.644315 0.000028 0.000054 -0.000001 -0.000001 0.000001 8.077854 -0.486742 -3.806386 76.038010 -20.898501 16.894770 3.600014 0.000159 0.014584 75.256766 -16.706390 13.328242 2.100048 0.000172 0.007538 77.471967 -12.729558 10.619287 2.125504 -0.000031 0.007517 -0.000000 -0.000002 0.000000 -8.207786 -6.751667 -1.599560 -0.077001 -0.000003 0.000080 -0.000002 -44.370110 0.345938 0.153719 -0.000000 -0.000000 0.000000 -44.423679 -3.043532 -0.076700 0.000000 -0.000002 -0.000006 -8.728667 10.710559 -0.000009 -0.000000 -0.000000 -0.000001 -0.000679 9.278123 0.000000 -0.000000 -0.000000 8.207792 -6.751710 -1.599556 -0.074518 -0.000003 0.000081 -0.000002 -44.370014 0.346960 0.148822 0.000002 0.000000 -0.000001 -44.423664 -3.044403 -0.074314 0.000000 -0.000002 -0.000004 -8.728671 10.710558 0.000007 -0.000000 -0.000000 0.000000 -0.000680 9.278137 -0.000000 0.000000 -0.000001 
